<?xml version="1.0" encoding="UTF-8" standalone="no"?>
<svg
   xml:space="preserve"
   width="1200"
   height="630"
   fill="none"
   viewBox="0 0 1200 630"
   version="1.1"
   id="svg351"
   sodipodi:docname="banner.svg"
   inkscape:version="1.2.2 (b0a8486541, 2022-12-01)"
   xmlns:inkscape="http://www.inkscape.org/namespaces/inkscape"
   xmlns:sodipodi="http://sodipodi.sourceforge.net/DTD/sodipodi-0.dtd"
   xmlns="http://www.w3.org/2000/svg"
   xmlns:svg="http://www.w3.org/2000/svg"><defs
     id="defs355"><clipPath
       clipPathUnits="userSpaceOnUse"
       id="clipPath530"><g
         id="g534"><rect
           width="44"
           height="44"
           fill="#ffffff"
           id="rect532"
           x="0"
           y="0" /></g></clipPath></defs><sodipodi:namedview
     id="namedview353"
     pagecolor="#ffffff"
     bordercolor="#666666"
     borderopacity="1.0"
     inkscape:showpageshadow="2"
     inkscape:pageopacity="0.0"
     inkscape:pagecheckerboard="0"
     inkscape:deskcolor="#d1d1d1"
     showgrid="false"
     inkscape:zoom="1.0916667"
     inkscape:cx="710.83967"
     inkscape:cy="393.4351"
     inkscape:window-width="2560"
     inkscape:window-height="1371"
     inkscape:window-x="0"
     inkscape:window-y="0"
     inkscape:window-maximized="1"
     inkscape:current-layer="svg351" /><rect
     width="1200"
     height="630"
     x="0"
     y="-2.8421709e-14"
     rx="0"
     ry="0"
     style="fill:#1f2a37;fill-opacity:1;stroke-width:15.7;stroke-linecap:round;stroke-linejoin:round;stroke-dashoffset:13;paint-order:stroke markers fill"
     id="rect345"
     inkscape:export-filename="rect345.png"
     inkscape:export-xdpi="96"
     inkscape:export-ydpi="96" /><path
     id="rect345-3"
     style="fill:#ffffff;fill-opacity:1;stroke-width:70.7173;stroke-linecap:round;stroke-linejoin:round;stroke-dashoffset:13;paint-order:stroke markers fill"
     d="m 323.36434,203.8723 c -0.99257,-6.9e-4 -1.98327,0.18993 -2.90052,0.5722 -0.9178,0.38238 -1.75394,0.95029 -2.45656,1.65746 -0.70263,0.70712 -1.25735,1.54204 -1.63771,2.46641 -0.38087,0.92438 -0.57119,1.91932 -0.57221,2.92022 l -0.0303,26.90369 -19.4255,-20.18515 c -1.39615,-1.45077 -3.30294,-2.27775 -5.30777,-2.30857 -0.99257,-0.0151 -1.9776,0.16366 -2.90046,0.53276 -0.92287,0.36874 -1.76359,0.92109 -2.47632,1.61796 -0.71222,0.69707 -1.28367,1.52784 -1.67715,2.44671 -0.3935,0.91882 -0.60641,1.89966 -0.62156,2.90046 -0.0151,1.00075 0.16719,1.99979 0.53275,2.93012 0.36622,0.93034 0.9166,1.77778 1.60811,2.49601 l 30.24816,31.44192 -0.0404,36.99629 -33.26708,-20.57981 -9.59924,-42.53092 c -0.44451,-1.97079 -1.64766,-3.6884 -3.34437,-4.76512 -1.69671,-1.07677 -3.74751,-1.4246 -5.70233,-0.97671 -1.95513,0.44804 -3.65759,1.65382 -4.72567,3.36422 -1.06814,1.71044 -1.42122,3.78079 -0.97671,5.75168 l 6.32388,28.0185 -22.89822,-14.16708 c -1.70893,-1.05732 -3.772,-1.38803 -5.72208,-0.9175 -0.96564,0.23336 -1.87011,0.65484 -2.67361,1.24305 -0.80355,0.58817 -1.4837,1.32691 -2.00271,2.18032 -1.04859,1.72292 -1.37439,3.79615 -0.90766,5.76158 0.46674,1.96588 1.68499,3.66839 3.39382,4.72562 l 22.69102,14.02902 -27.11084,6.21533 c -0.96822,0.22176 -1.8831,0.63464 -2.69337,1.21351 -0.81021,0.57837 -1.50339,1.31347 -2.03231,2.16057 -0.52886,0.84709 -0.87856,1.78576 -1.04575,2.77226 -0.1672,0.98701 -0.14144,2.00356 0.0788,2.97946 0.4445,1.97044 1.64776,3.67881 3.34446,4.75523 1.69666,1.07692 3.74736,1.43409 5.70239,0.98655 l 42.19546,-9.6782 40.95247,25.32519 -0.0202,25.06868 c -0.002,2.02099 0.78415,3.95617 2.20001,5.38668 1.41636,1.4305 3.3429,2.23698 5.34722,2.23951 0.99308,6.9e-4 1.97281,-0.19953 2.89062,-0.58211 0.91781,-0.38187 1.75394,-0.94038 2.45656,-1.64756 0.70314,-0.70716 1.2667,-1.54203 1.64756,-2.46641 0.38087,-0.92437 0.5717,-1.91911 0.57221,-2.92026 l 0.0303,-24.39778 41.07082,-25.41399 42.20537,9.67821 c 0.96782,0.22225 1.97094,0.24751 2.94987,0.0788 0.97892,-0.1682 1.91199,-0.53259 2.75251,-1.0655 0.84053,-0.53341 1.56704,-1.22538 2.14086,-2.04216 0.57382,-0.81679 0.98337,-1.73666 1.20361,-2.71307 0.4445,-1.97099 0.0909,-4.04138 -0.97671,-5.75167 -1.06833,-1.71035 -2.76099,-2.92603 -4.71582,-3.37407 l -27.12074,-6.21539 22.70092,-14.02902 c 1.70882,-1.05667 2.92657,-2.76019 3.39381,-4.72562 0.46724,-1.96594 0.14043,-4.03811 -0.90765,-5.76158 -1.04889,-1.72253 -2.73665,-2.95265 -4.68643,-3.42342 -1.95027,-0.47027 -4.00289,-0.13992 -5.71223,0.91751 l -22.92782,14.17697 6.29429,-28.03825 c 0.21922,-0.97645 0.247,-1.98286 0.0788,-2.96956 -0.1682,-0.98666 -0.52578,-1.92568 -1.05566,-2.77227 -0.53037,-0.84654 -1.22108,-1.583 -2.0323,-2.16056 -0.81123,-0.57761 -1.72454,-0.99287 -2.69331,-1.21346 -0.96833,-0.22073 -1.97145,-0.23892 -2.94987,-0.0692 -0.97843,0.16972 -1.9125,0.53113 -2.75252,1.06551 -0.83951,0.53431 -1.56805,1.22466 -2.14086,2.0422 -0.5728,0.81759 -0.97503,1.74657 -1.19375,2.72292 l -9.5401,42.53092 -33.36573,20.62916 0.0404,-38.121 30.93876,-30.20871 c 1.43965,-1.40626 2.26846,-3.32653 2.29877,-5.34718 0.0303,-2.02064 -0.73632,-3.97425 -2.13097,-5.42613 -0.69045,-0.71924 -1.51622,-1.29882 -2.42696,-1.69691 -0.91124,-0.39803 -1.8882,-0.60533 -2.88076,-0.62149 -0.99308,-0.0151 -1.97715,0.16466 -2.90052,0.53274 -0.92332,0.36824 -1.77243,0.91176 -2.48616,1.60806 l -20.39236,19.91881 0.0202,-27.05165 c 10e-4,-1.00084 -0.19346,-1.99528 -0.57216,-2.92026 -0.37934,-0.92503 -0.93609,-1.75808 -1.6377,-2.46641 -0.70111,-0.70833 -1.52941,-1.27367 -2.44671,-1.65746 -0.9168,-0.3839 -1.89755,-0.58119 -2.89062,-0.58205 z m 149.39593,66.2579 v 88.19911 h 18.23174 v -35.75319 h 40.13361 v -15.15367 h -40.13361 v -21.66502 h 43.09328 V 270.1302 Z m 305.55975,0 v 88.19911 h 17.46224 V 270.1302 Z m 199.85886,0 c -4.49872,0 -8.24771,0.6511 -11.2469,1.95341 -2.99913,1.30225 -5.26816,3.25567 -6.80732,5.86018 -1.49953,2.60457 -2.24933,5.86023 -2.24933,9.76705 v 8.10955 h -11.3061 v 13.67387 h 11.3061 v 48.83505 h 17.40305 v -48.83505 h 12.78592 v -13.67387 h -12.78592 v -5.14988 c 0,-2.48612 0.513,-4.24223 1.53901,-5.26828 1.0655,-1.06546 2.84131,-1.59821 5.3275,-1.59821 h 3.2557 2.66371 V 270.1302 h -3.90681 z m -241.39338,8.6423 v 17.04789 h -10.7733 v 13.67387 h 10.7733 v 32.26071 c 0,5.68264 1.61801,9.8657 4.85393,12.54917 3.27542,2.68346 8.34634,4.02517 15.21288,4.02517 h 5.74178 4.43958 v -13.67382 h -3.19648 -3.49246 c -2.36777,0 -3.98573,-0.4142 -4.85388,-1.24305 -0.8287,-0.82871 -1.2431,-2.28887 -1.2431,-4.38038 v -29.5378 h 12.78592 V 295.82039 H 754.24775 V 278.7725 Z m -116.33606,15.62722 c -6.27458,0 -11.79936,1.38121 -16.57433,4.14363 -4.77498,2.72292 -8.5042,6.53108 -11.18767,11.42446 -2.64401,4.89332 -3.96602,10.61545 -3.96602,17.16624 0,6.51133 1.32201,12.21371 3.96602,17.10708 2.68347,4.89338 6.41269,8.70155 11.18767,11.42447 4.77497,2.72292 10.29975,4.08437 16.57433,4.08437 6.35349,0 11.89801,-1.36145 16.63354,-4.08437 4.77498,-2.72292 8.4845,-6.53109 11.12846,-11.42447 2.68346,-4.89337 4.02522,-10.59575 4.02522,-17.10708 0,-6.55079 -1.34176,-12.27292 -4.02522,-17.16624 -2.64396,-4.89338 -6.35348,-8.70154 -11.12846,-11.42446 -4.73553,-2.76242 -10.28005,-4.14363 -16.63354,-4.14363 z m 218.1104,0 c -5.95889,0 -11.24692,1.40096 -15.86403,4.20283 -4.61713,2.80181 -8.2477,6.66918 -10.89171,11.60201 -2.60452,4.89338 -3.90677,10.53655 -3.90677,16.92949 0,6.31403 1.28251,11.93751 3.84757,16.87034 2.60456,4.93283 6.23513,8.80019 10.8917,11.60201 4.69608,2.76241 10.20115,4.14357 16.51519,4.14357 5.05118,0 9.66835,-0.8879 13.85137,-2.66371 4.18307,-1.81527 7.65579,-4.30143 10.41816,-7.45844 2.76241,-3.15702 4.51847,-6.80734 5.26827,-10.95091 h -15.92318 c -0.513,1.61796 -1.38121,3.03862 -2.60456,4.26197 -1.18386,1.18386 -2.66372,2.11127 -4.43953,2.78211 -1.73635,0.63141 -3.74897,0.94711 -6.03782,0.94711 -3.11753,0 -5.78129,-0.65116 -7.9912,-1.95341 -2.20991,-1.34171 -3.90682,-3.21622 -5.09068,-5.62343 -1.03802,-2.21921 -1.61027,-4.7675 -1.70675,-7.63604 h 44.44488 v -4.67633 c 0,-4.77497 -0.74981,-9.13559 -2.24941,-13.08186 -1.46006,-3.94627 -3.55162,-7.35979 -6.27453,-10.2406 -2.72292,-2.92022 -5.95889,-5.14988 -9.70786,-6.68894 -3.74892,-1.57851 -7.93199,-2.36777 -12.54911,-2.36777 z m -149.22824,0.11821 c -5.44588,0 -10.16165,0.809 -14.14737,2.42696 -3.94627,1.61801 -7.00464,3.90682 -9.1751,6.86653 -2.13096,2.95972 -3.19646,6.41269 -3.19646,10.35896 0,4.81443 1.5785,8.76074 4.73552,11.83881 3.15702,3.07807 7.77414,5.20907 13.85142,6.39294 l 10.95086,2.131 c 2.56511,0.4733 4.53822,1.22336 5.91943,2.24937 1.42066,1.02605 2.13096,2.36776 2.13096,4.02522 0,1.93366 -0.92735,3.51217 -2.78211,4.73552 -1.81526,1.22331 -4.34088,1.83501 -7.57684,1.83501 -3.39377,0 -6.07724,-0.76955 -8.05039,-2.30856 -1.97311,-1.53906 -3.11752,-3.67007 -3.43322,-6.39298 h -17.16629 c 0.3945,4.45927 1.85476,8.26744 4.38037,11.42446 2.52561,3.15701 5.89968,5.58398 10.12215,7.28088 4.22253,1.65742 9.037,2.48617 14.44338,2.48612 5.44583,0 10.24055,-0.84841 14.38413,-2.54531 4.18307,-1.73637 7.43874,-4.14358 9.76705,-7.22169 2.36776,-3.11757 3.55161,-6.74814 3.55161,-10.89171 0,-4.61712 -1.49955,-8.3069 -4.49872,-11.06931 -2.95972,-2.80181 -7.59659,-4.81442 -13.91062,-6.03778 l -11.83881,-2.30856 c -2.36777,-0.513 -4.22253,-1.28251 -5.56423,-2.30857 -1.34176,-1.026 -2.01261,-2.34801 -2.01261,-3.96602 0,-1.85471 0.84845,-3.41352 2.54536,-4.67632 1.69686,-1.30226 4.04492,-1.95341 7.04409,-1.95341 3.11751,0 5.64317,0.82875 7.57683,2.48616 1.93366,1.65746 2.92022,3.74897 2.95972,6.27459 h 16.15994 c -0.11821,-4.34093 -1.32201,-8.08985 -3.61082,-11.24686 -2.24936,-3.15702 -5.38668,-5.58398 -9.41185,-7.28089 -4.02517,-1.73636 -8.741,-2.60456 -14.14738,-2.60456 z m 220.55705,0 c -5.72204,0 -10.63522,0.8682 -14.73933,2.60456 -4.10411,1.69691 -7.30061,4.12387 -9.58936,7.28089 -2.24953,3.15701 -3.51234,6.88623 -3.78841,11.18766 h 16.39667 c 0.15761,-1.61796 0.71031,-3.03862 1.65742,-4.26198 0.9471,-1.22336 2.22968,-2.17046 3.84767,-2.84131 1.65742,-0.67085 3.55162,-1.00631 5.68262,-1.00631 2.131,0 3.94623,0.3354 5.44583,1.00631 1.53901,0.67085 2.72298,1.59826 3.55162,2.78211 0.82877,1.14441 1.24316,2.48616 1.24316,4.02522 v 0.4142 c 0,1.34171 -0.4935,2.34802 -1.47989,3.01887 -0.98659,0.67091 -2.60458,1.1839 -4.85391,1.53906 -2.24939,0.3551 -5.28801,0.73005 -9.11591,1.1247 -3.23592,0.27631 -6.33373,0.78926 -9.29343,1.53901 -2.92029,0.74981 -5.5248,1.85476 -7.81369,3.31487 -2.24926,1.42065 -4.02513,3.31487 -5.32743,5.68263 -1.30229,2.32831 -1.9534,5.24858 -1.9534,8.76075 0,4.14357 0.92739,7.61628 2.78211,10.41815 1.85479,2.76237 4.4001,4.83418 7.63609,6.21538 3.23592,1.38116 6.92571,2.07176 11.06924,2.07176 3.1965,0 5.9589,-0.3945 8.28721,-1.18385 2.3283,-0.82871 4.30148,-1.97316 5.91934,-3.43327 1.61806,-1.46011 2.97941,-3.21622 4.08447,-5.26828 h 0.23686 v 8.81995 h 17.04793 v -42.38298 c 0,-3.35431 -0.59199,-6.35348 -1.77581,-8.99749 -1.1839,-2.64402 -2.94,-4.89338 -5.2683,-6.74814 -2.28882,-1.85471 -5.11042,-3.25566 -8.46473,-4.20277 -3.35432,-0.98655 -7.16251,-1.47986 -11.4245,-1.47986 z m -333.39079,0.88795 c -4.14357,0 -7.43874,0.90761 -9.8854,2.72291 -2.44671,1.81526 -4.24227,4.59743 -5.38668,8.34635 h -0.1778 v -10.65491 h -16.81109 v 62.50893 h 17.46224 v -33.85903 c 0,-3.15701 0.53275,-5.80103 1.59821,-7.93199 1.06551,-2.13101 2.54536,-3.72922 4.43957,-4.79472 1.89422,-1.10496 4.02522,-1.65747 6.39294,-1.65747 1.4996,0 2.95971,0.0404 4.38037,0.11821 1.46011,0.0788 2.50591,0.13789 3.13732,0.1778 v -14.85768 c -0.71036,-0.0404 -1.49961,-0.0591 -2.36777,-0.0591 -0.82875,-0.0404 -1.7561,-0.0591 -2.78216,-0.0591 z m -159.68583,11.40471 c -16.82963,0.35561 -34.06113,6.06849 -48.04586,14.16712 h -0.0101 c -16.31541,9.48414 -27.69456,24.69065 -36.27609,39.76851 v 0.0101 c -4.01098,7.04974 -6.61574,14.55339 -8.74075,22.11861 -7.38435,-21.31616 -21.88612,-39.76869 -40.19277,-52.60381 -15.25516,-10.6894 -32.59607,-18.4145 -50.96607,-22.06952 -4.90252,-0.98094 -10.1717,-1.26619 -15.01558,2.16057 -4.84367,3.42675 -6.41006,10.27869 -5.27813,16.22903 0.005,0.0101 0.005,0.0253 0.0101,0.0404 5.16296,26.46232 18.12158,51.8759 38.6537,70.09567 13.06758,11.64151 28.61631,22.92328 47.41445,27.03194 0.005,5.1e-4 0.0151,-5e-4 0.0202,0 8.36534,1.80733 16.86691,2.51718 25.32518,2.32831 0.13841,0.0101 0.40411,0.0404 0.40461,0.0404 l 0.0788,-0.0303 c 27.17752,-0.72637 53.84688,-11.43088 73.86434,-30.54417 v -0.0101 c 12.78763,-12.19311 22.58332,-27.26324 29.07415,-43.55698 1.32746,-3.33022 4.81635,-12.17376 6.33373,-21.18161 0.7588,-4.50413 1.23391,-9.0617 -0.2268,-13.92043 -0.73041,-2.42913 -2.12191,-5.0539 -4.50862,-7.02438 -2.38721,-1.97099 -5.57055,-2.98184 -8.5634,-3.04852 -1.11733,-0.0253 -2.23244,-0.0253 -3.35431,0 z m 422.10296,0.8484 c 2.92021,0 5.42608,0.63141 7.51764,1.89421 2.13096,1.22336 3.76872,2.97947 4.91313,5.26828 0.80845,1.61685 1.3214,3.45499 1.55875,5.50508 h -27.87055 c 0.23742,-2.05009 0.76021,-3.88823 1.56866,-5.50508 1.14441,-2.28881 2.76242,-4.04492 4.85393,-5.26828 2.09151,-1.2628 4.57768,-1.89421 7.45844,-1.89421 z m -218.46555,0.88796 c 2.84132,0 5.32748,0.74975 7.45844,2.24936 2.13102,1.46011 3.78842,3.57137 4.97233,6.33373 1.18386,2.76242 1.77581,6.09703 1.77581,10.00381 0,3.82792 -0.59195,7.12303 -1.77581,9.8854 -1.18391,2.76242 -2.84131,4.89337 -4.97233,6.39298 -2.13096,1.46011 -4.61712,2.19017 -7.45844,2.19017 -2.80186,0 -5.26828,-0.73006 -7.39923,-2.19017 -2.13102,-1.49961 -3.78842,-3.61082 -4.97233,-6.33378 -1.18386,-2.76237 -1.77581,-6.07723 -1.77581,-9.9446 0,-3.90678 0.59195,-7.24139 1.77581,-10.00381 1.18391,-2.76236 2.84131,-4.87362 4.97233,-6.33373 2.13095,-1.49961 4.59737,-2.24936 7.39923,-2.24936 z m -201.61495,13.57517 c 0.14093,1.14764 0.19396,3.33578 -0.27631,6.12658 -1.12642,6.68778 -4.25656,15.04569 -5.45573,18.0542 -5.7301,14.38382 -14.36801,27.6198 -25.43373,38.1703 l -0.0101,0.0101 c -14.8541,14.18531 -34.22065,22.95015 -54.35984,25.53233 2.66447,-15.06674 5.62777,-29.94948 12.30246,-41.68247 7.86729,-13.82263 17.87215,-26.68901 30.69211,-34.14513 h 0.0101 c 12.40581,-7.18178 28.55175,-12.13188 42.53097,-12.06571 z m -190.78245,0.83856 c 0.43844,0.0151 0.96231,0.0722 1.58836,0.1975 16.17286,3.21611 31.62512,10.05886 45.27358,19.62285 22.28142,15.62137 37.77004,40.51836 38.83131,67.81665 -4.08392,-0.31974 -8.15399,-0.86906 -12.17426,-1.73635 -14.80914,-3.23683 -28.41048,-12.68369 -40.60712,-23.54938 -0.005,-0.003 -0.005,-0.0151 -0.0101,-0.0202 -17.64101,-15.64946 -29.22519,-38.06574 -33.81953,-61.57173 l -0.0101,-0.0404 c -0.0995,-0.50826 -0.11618,-0.46118 -0.16771,-0.70046 0.29954,-0.0202 0.65666,-0.0353 1.09511,-0.0202 z m 691.66283,6.24498 v 6.27458 c 0,2.24936 -0.55243,4.26197 -1.65742,6.03778 -1.10492,1.77581 -2.68349,3.17677 -4.73551,4.20277 -2.0126,1.02606 -4.41981,1.53906 -7.2217,1.53906 -1.93363,0 -3.63053,-0.2763 -5.09064,-0.82871 -1.46011,-0.5525 -2.58487,-1.3615 -3.37409,-2.42696 -0.78929,-1.0655 -1.1839,-2.32831 -1.1839,-3.78842 0,-1.65745 0.4738,-3.01891 1.42069,-4.08441 0.94703,-1.10496 2.22969,-1.97312 3.84754,-2.60452 1.61806,-0.67086 3.43329,-1.16416 5.4459,-1.47986 1.3812,-0.1975 2.72298,-0.4142 4.0252,-0.65115 1.30229,-0.23691 2.50583,-0.45411 3.61082,-0.65111 1.10492,-0.23689 2.0718,-0.47329 2.90057,-0.71035 0.82871,-0.2763 1.49953,-0.55245 2.01254,-0.8287 z" /></svg>
