<?xml version="1.0" encoding="UTF-8" standalone="no"?>
<svg
   width="44"
   height="44"
   viewBox="0 0 44 44"
   fill="none"
   version="1.1"
   id="svg475"
   sodipodi:docname="logo-icon.svg"
   inkscape:version="1.2.2 (b0a8486541, 2022-12-01)"
   xmlns:inkscape="http://www.inkscape.org/namespaces/inkscape"
   xmlns:sodipodi="http://sodipodi.sourceforge.net/DTD/sodipodi-0.dtd"
   xmlns="http://www.w3.org/2000/svg"
   xmlns:svg="http://www.w3.org/2000/svg">
  <sodipodi:namedview
     id="namedview477"
     pagecolor="#ffffff"
     bordercolor="#666666"
     borderopacity="1.0"
     inkscape:showpageshadow="2"
     inkscape:pageopacity="0.0"
     inkscape:pagecheckerboard="0"
     inkscape:deskcolor="#d1d1d1"
     showgrid="false"
     inkscape:zoom="4.1261288"
     inkscape:cx="32.960677"
     inkscape:cy="37.444299"
     inkscape:window-width="2560"
     inkscape:window-height="1371"
     inkscape:window-x="0"
     inkscape:window-y="0"
     inkscape:window-maximized="1"
     inkscape:current-layer="svg475" />
  <defs
     id="defs473">
    <clipPath
       id="clip0_2029_10">
      <rect
         width="44"
         height="44"
         fill="white"
         id="rect470" />
    </clipPath>
  </defs>
  <path
     id="rect345"
     style="fill:#1d293d;fill-opacity:1;stroke-width:14;stroke-linecap:round;stroke-linejoin:round;stroke-dashoffset:13;paint-order:stroke markers fill"
     d="m 22.059982,-1.8572765e-4 c -0.1965,-1.66e-4 -0.392629,0.0376099977 -0.574219,0.11328099765 -0.1817,0.07567 -0.347228,0.188133 -0.486328,0.328125 -0.1391,0.139992 -0.248919,0.305283 -0.324219,0.488281 -0.07538,0.18299903 -0.113081,0.37997603 -0.113281,0.57812503 l -0.0059,5.326172 -3.845703,-3.996093 c -0.2764,-0.28721 -0.653882,-0.450932 -1.050782,-0.457032 -0.1965,-0.003 -0.391519,0.03244 -0.574218,0.105469 -0.1827,0.07303 -0.349135,0.182353 -0.490235,0.320313 -0.141,0.138 -0.254131,0.302465 -0.332031,0.484375 -0.07785,0.181899 -0.120047,0.376089 -0.123047,0.574218 -0.0029,0.198119 0.03307,0.395899 0.105469,0.580078 0.0725,0.18418 0.181459,0.351952 0.318359,0.494141 l 5.988281,6.2246087 -0.0078,7.324219 L 13.95839,14.413876 12.058,5.9939553 c -0.08797,-0.39016 -0.326181,-0.730201 -0.662081,-0.94336 -0.335899,-0.21317 -0.741906,-0.282029 -1.128906,-0.193359 -0.3870603,0.08875 -0.7240973,0.327406 -0.9355473,0.666015 -0.21146,0.338619 -0.281359,0.748493 -0.193359,1.138672 L 10.39006,12.208798 5.8568567,9.4041113 c -0.33832,-0.209321 -0.746753,-0.274791 -1.132813,-0.181641 -0.191169,0.04619 -0.370227,0.129644 -0.529297,0.246094 -0.159079,0.11644 -0.293734,0.262691 -0.396484,0.431641 -0.20759,0.3410887 -0.272087,0.7515247 -0.179687,1.1406247 0.09242,0.389198 0.333575,0.726247 0.671875,0.935546 l 4.492187,2.777344 -5.367187,1.230469 c -0.19168,0.0439 -0.372794,0.125634 -0.533204,0.240234 -0.160399,0.1145 -0.297633,0.260035 -0.402343,0.427735 -0.1047,0.1677 -0.173932,0.353528 -0.207032,0.548828 -0.0331,0.1954 -0.02797,0.396644 0.01563,0.589844 0.08803,0.390098 0.32621,0.728306 0.66211,0.941406 0.335889,0.213203 0.741866,0.283912 1.128906,0.195312 l 8.3535163,-1.916015 8.107422,5.013672 -0.0039,4.962891 c -4e-4,0.4001 0.155248,0.78321 0.435547,1.06641 0.2804,0.28319 0.661794,0.44285 1.058594,0.44336 0.1966,2e-4 0.390566,-0.0396 0.572266,-0.11524 0.181699,-0.0756 0.347228,-0.18617 0.486328,-0.32617 0.1392,-0.14 0.250772,-0.30528 0.326172,-0.48828 0.07538,-0.183 0.113181,-0.37993 0.113281,-0.57813 l 0.0059,-4.830076 8.13086,-5.03125 8.355468,1.916016 c 0.1916,0.044 0.390185,0.04903 0.583985,0.01563 0.1938,-0.0333 0.378522,-0.105438 0.544922,-0.210938 0.166399,-0.1056 0.310228,-0.242597 0.423828,-0.404297 0.1136,-0.161699 0.194681,-0.343809 0.238281,-0.537109 0.088,-0.390198 0.01804,-0.800073 -0.193359,-1.138672 -0.2115,-0.338599 -0.546595,-0.579269 -0.933594,-0.667969 l -5.369141,-1.230468 4.494141,-2.777344 c 0.3383,-0.2092 0.579375,-0.546447 0.671875,-0.935547 0.0925,-0.389198 0.02781,-0.799425 -0.179688,-1.140625 C 40.094575,9.6763843 39.76044,9.4328583 39.37444,9.3396583 c -0.3861,-0.09314 -0.79246,-0.02768 -1.130859,0.18164 l -4.539063,2.8066407 1.246094,-5.5507807 c 0.0434,-0.19331 0.04892,-0.392551 0.01563,-0.587891 -0.0333,-0.195329 -0.10409,-0.381228 -0.20899,-0.548828 -0.104999,-0.1676 -0.241743,-0.313395 -0.402343,-0.427734 -0.1606,-0.11435 -0.341404,-0.196565 -0.533203,-0.240235 -0.1917,-0.04368 -0.390285,-0.04728 -0.583985,-0.01367 -0.1937,0.03361 -0.378622,0.105148 -0.544922,0.210938 -0.166199,0.10578 -0.310428,0.242447 -0.423828,0.404297 -0.1134,0.161859 -0.193028,0.345772 -0.236328,0.539062 l -1.888672,8.4199217 -6.605469,4.083985 0.0078,-7.546876 6.125,-5.9804677 c 0.285013,-0.2784 0.449091,-0.658564 0.455091,-1.058594 0.0064,-0.400029 -0.145775,-0.78679 -0.421875,-1.074219 -0.13669,-0.14239 -0.300169,-0.257127 -0.480469,-0.335937 -0.180399,-0.07881 -0.373812,-0.119847 -0.570312,-0.123047 -0.1966,-0.0032 -0.391419,0.03259 -0.574219,0.105469 -0.18279,0.07289 -0.350888,0.180499 -0.492187,0.318359 l -4.03711,3.943359 0.0039,-5.355468 c 2.06e-4,-0.19814 -0.03828,-0.395001 -0.113275,-0.57812503 -0.0751,-0.183126 -0.185319,-0.348056 -0.324218,-0.488282 -0.1388,-0.140226 -0.302776,-0.252145 -0.484376,-0.328125 -0.181499,-0.07599 -0.375665,-0.11506799765 -0.572265,-0.11523399765 z m 18.5,20.37890872765 c -3.331787,0.0704 -6.743132,1.201391 -9.511719,2.804693 h -0.002 c -3.229987,1.87759 -5.482742,4.88805 -7.181641,7.87304 v 0.002 c -0.794052,1.39565 -1.309722,2.88116 -1.730421,4.37886 -1.461899,-4.21999 -4.332835,-7.87307 -7.957032,-10.41406 -3.020097,-2.1162 -6.4531073,-3.645547 -10.0898433,-4.369145 -0.970559,-0.1942 -2.013708,-0.250665 -2.972657,0.427734 -0.95891905,0.678399 -1.26901105,2.034891 -1.04492205,3.212891 0.001,0.002 0.0014,0.005 0.002,0.008 1.02212905,5.23879 3.58756705,10.26996 7.65234305,13.87695 2.5870083,2.3047 5.6652233,4.53817 9.3867193,5.35157 0.001,1e-4 0.0029,-10e-5 0.0039,0 1.656099,0.3578 3.339174,0.49833 5.013672,0.46093 0.0274,0.002 0.07998,0.008 0.08008,0.008 l 0.01563,-0.006 c 5.380385,-0.1438 10.660161,-2.26298 14.623047,-6.04687 v -0.002 c 2.531598,-2.4139 4.470861,-5.39735 5.75586,-8.62305 0.262799,-0.6593 0.953506,-2.41006 1.253906,-4.19336 0.15022,-0.89169 0.244278,-1.79396 -0.04492,-2.75586 -0.1446,-0.480895 -0.420079,-1.000522 -0.892578,-1.390621 -0.4726,-0.390199 -1.102813,-0.590316 -1.695313,-0.603516 -0.221199,-0.0049 -0.441962,-0.0047 -0.664062,0 z m 0.400391,3.031243 c 0.0279,0.2272 0.03841,0.6604 -0.05469,1.2129 -0.223,1.32399 -0.842678,2.97861 -1.080078,3.57421 -1.134399,2.8476 -2.844459,5.46795 -5.035156,7.55664 l -0.002,0.002 c -2.940697,2.8083 -6.774722,4.54349 -10.761718,5.05469 0.527499,-2.98279 1.114148,-5.92916 2.435547,-8.25195 1.557498,-2.7365 3.538174,-5.28367 6.076171,-6.75977 h 0.002 c 2.455997,-1.42179 5.652434,-2.40177 8.419922,-2.38867 z m -37.7695323,0.16602 c 0.08678,0.003 0.190513,0.0143 0.314453,0.0391 3.201767,0.6367 6.260884,1.99137 8.9628913,3.88477 4.411086,3.09259 7.4774,8.02149 7.6875,13.42578 -0.808499,-0.0633 -1.614257,-0.17205 -2.410156,-0.34375 -2.931797,-0.6408 -5.624475,-2.51102 -8.0390633,-4.66211 -0.001,-7e-4 -0.0011,-0.003 -0.0019,-0.004 -3.492419,-3.09815 -5.785756,-7.53594 -6.695315,-12.18946 l -0.002,-0.008 c -0.0197,-0.10062 -0.023,-0.0913 -0.0332,-0.13867 0.05933,-0.004 0.129996,-0.007 0.216796,-0.004 z"
     sodipodi:nodetypes="scscccscscccccccccscsccccscsccccssscccccccccsccccccssccccccccccscscscsccccccccssccccccssccccccccscccccccccccssscccccccccccccccccccccccccc" />
</svg>
