<?xml version="1.0" encoding="UTF-8" standalone="no"?>
<svg
   width="40"
   height="40"
   fill="none"
   viewBox="0 0 40 40"
   version="1.1"
   id="svg320"
   sodipodi:docname="icon.svg"
   inkscape:version="1.2.2 (b0a8486541, 2022-12-01)"
   xmlns:inkscape="http://www.inkscape.org/namespaces/inkscape"
   xmlns:sodipodi="http://sodipodi.sourceforge.net/DTD/sodipodi-0.dtd"
   xmlns="http://www.w3.org/2000/svg"
   xmlns:svg="http://www.w3.org/2000/svg">
  <defs
     id="defs324">
    <clipPath
       id="clip0_2029_10">
      <rect
         width="44"
         height="44"
         fill="#ffffff"
         id="rect6"
         x="0"
         y="0" />
    </clipPath>
  </defs>
  <sodipodi:namedview
     id="namedview322"
     pagecolor="#ffffff"
     bordercolor="#666666"
     borderopacity="1.0"
     inkscape:showpageshadow="2"
     inkscape:pageopacity="0.0"
     inkscape:pagecheckerboard="0"
     inkscape:deskcolor="#d1d1d1"
     showgrid="false"
     inkscape:zoom="6.4187501"
     inkscape:cx="59.668937"
     inkscape:cy="33.885101"
     inkscape:window-width="2560"
     inkscape:window-height="1371"
     inkscape:window-x="0"
     inkscape:window-y="0"
     inkscape:window-maximized="1"
     inkscape:current-layer="svg320" />
  <path
     d="M5 0h30c2.77 0 5 2.23 5 5v30c0 2.77-2.23 5-5 5H5c-2.77 0-5-2.23-5-5V5c0-2.77 2.23-5 5-5"
     style="fill:#fff;stroke-width:11.0455;stroke-linecap:round;stroke-linejoin:round;stroke-dashoffset:13;paint-order:stroke markers fill"
     id="path316" />
  <path
     id="rect345"
     style="fill:#1d293d;fill-opacity:1;stroke-width:9.54557;stroke-linecap:round;stroke-linejoin:round;stroke-dashoffset:13;paint-order:stroke markers fill"
     d="m 20.040894,4.9998267 c -0.133979,-1.13e-4 -0.267705,0.02564 -0.391518,0.07724 -0.123888,0.05159 -0.236749,0.128274 -0.331591,0.223724 -0.09484,0.09545 -0.16972,0.20815 -0.221061,0.332924 -0.0514,0.124773 -0.0771,0.259077 -0.07724,0.394181 l -0.004,3.631524 -2.622102,-2.724642 c -0.188457,-0.195827 -0.445834,-0.307457 -0.716451,-0.311617 -0.133979,-0.002 -0.266948,0.02212 -0.391517,0.07191 -0.12457,0.04979 -0.238049,0.124333 -0.334255,0.218398 -0.09614,0.09409 -0.173273,0.206228 -0.226388,0.33026 -0.05308,0.124023 -0.08185,0.256427 -0.0839,0.391517 -0.002,0.135082 0.02255,0.269934 0.07191,0.395513 0.04943,0.125578 0.123724,0.239969 0.217066,0.336917 l 4.082968,4.2441033 -0.0053,4.993846 -4.490467,-2.77791 -1.295736,-5.7409243 c -0.06001,-0.266022 -0.222433,-0.497871 -0.451458,-0.643208 -0.229025,-0.145344 -0.505851,-0.192295 -0.769718,-0.131837 -0.263908,0.06051 -0.493709,0.223234 -0.637881,0.454107 -0.144179,0.230879 -0.191838,0.510341 -0.131837,0.776376 l 0.853615,3.7820063 -3.0908581,-1.91231 c -0.230676,-0.142721 -0.509156,-0.18736 -0.772382,-0.123848 -0.130344,0.03149 -0.25243,0.08839 -0.360889,0.167794 -0.108464,0.07939 -0.200275,0.17911 -0.270333,0.294304 -0.14154,0.232564 -0.185516,0.51241 -0.122515,0.777708 0.06301,0.265366 0.22744,0.495175 0.458102,0.63788 L 10.98805,15.05943 7.3285599,15.898396 c -0.130693,0.02993 -0.254181,0.08566 -0.363552,0.163798 -0.109365,0.07807 -0.202935,0.177299 -0.274329,0.291641 -0.07139,0.114342 -0.118591,0.241045 -0.141159,0.374206 -0.02257,0.133228 -0.01908,0.270442 0.01066,0.402171 0.06002,0.265979 0.222418,0.496578 0.451443,0.641875 0.229019,0.145368 0.505825,0.193579 0.769718,0.133169 l 5.6956481,-1.30639 5.527855,3.418455 -0.0027,3.383829 c -2.73e-4,0.272798 0.105852,0.534011 0.296967,0.727105 0.191184,0.193091 0.451229,0.301953 0.721778,0.302293 0.134047,1.37e-4 0.266298,-0.02696 0.390186,-0.07857 0.123887,-0.05155 0.236749,-0.126937 0.331591,-0.222392 0.09491,-0.09546 0.170983,-0.20815 0.222393,-0.332923 0.0514,-0.124774 0.07717,-0.259044 0.07724,-0.394181 l 0.004,-3.293275 5.543836,-3.430439 5.696978,1.30639 c 0.130638,0.03 0.266039,0.03343 0.398177,0.01066 0.132138,-0.02271 0.258086,-0.07189 0.371542,-0.143823 0.113455,-0.072 0.211522,-0.165409 0.288977,-0.275661 0.07746,-0.11025 0.132739,-0.234418 0.162467,-0.366215 0.06,-0.266047 0.0123,-0.545511 -0.131838,-0.776376 -0.144206,-0.230866 -0.372683,-0.394961 -0.636549,-0.455439 l -3.660825,-0.838966 3.064224,-1.893666 c 0.230662,-0.142638 0.395033,-0.372582 0.458102,-0.637881 0.06307,-0.265366 0.01896,-0.545069 -0.122516,-0.777708 -0.141579,-0.232512 -0.369402,-0.398554 -0.632587,-0.462101 -0.263253,-0.0635 -0.54032,-0.01887 -0.771049,0.123847 l -3.094853,1.913642 0.84962,-3.7846693 c 0.02959,-0.131804 0.03336,-0.267652 0.01066,-0.40084 -0.02271,-0.13318 -0.07097,-0.259931 -0.142495,-0.374205 -0.07159,-0.114274 -0.164827,-0.21368 -0.274328,-0.29164 -0.109502,-0.07797 -0.232779,-0.134024 -0.363552,-0.163799 -0.130706,-0.02978 -0.266107,-0.03224 -0.398177,-0.0093 -0.13207,0.02292 -0.258154,0.07169 -0.371542,0.143823 -0.113319,0.07212 -0.211658,0.165306 -0.288977,0.27566 -0.07732,0.11036 -0.131612,0.235757 -0.161135,0.367547 l -1.287746,5.7409253 -4.503784,2.784569 0.0053,-5.145659 4.176187,-4.0776423 c 0.194329,-0.18982 0.306202,-0.449026 0.310293,-0.721777 0.0044,-0.27275 -0.09939,-0.536454 -0.287646,-0.732431 -0.0932,-0.09708 -0.204663,-0.175316 -0.327596,-0.229051 -0.123001,-0.05373 -0.254875,-0.08171 -0.388854,-0.0839 -0.134047,-0.0022 -0.26688,0.02222 -0.391518,0.07191 -0.124631,0.0497 -0.239245,0.123069 -0.335586,0.217066 l -2.752608,2.688686 0.0027,-3.651499 c 1.4e-4,-0.135098 -0.02609,-0.269323 -0.07723,-0.394181 -0.0512,-0.12486 -0.126355,-0.237314 -0.22106,-0.332924 -0.09464,-0.09561 -0.206441,-0.171919 -0.330261,-0.223724 -0.123751,-0.05181 -0.256138,-0.07846 -0.390185,-0.07857 z M 32.654683,18.894706 c -2.271701,0.048 -4.597646,0.81914 -6.485342,1.91231 h -0.0014 c -2.202291,1.280195 -3.738279,3.332804 -4.896633,5.368052 v 0.0014 c -0.541406,0.951589 -0.893003,1.964451 -1.179847,2.98562 -0.996761,-2.877302 -2.954241,-5.368066 -5.425314,-7.100583 -2.059182,-1.442878 -4.399899,-2.485627 -6.8795221,-2.978996 -0.661753,-0.13241 -1.372999,-0.17091 -2.026836,0.291641 -0.653817,0.46255 -0.865245,1.387444 -0.712455,2.190634 6.81e-4,0.0016 9.55e-4,0.0037 0.0014,0.0053 0.696914,3.571945 2.446098,7.00233 5.2175691,9.461674 1.763891,1.571401 3.862699,3.09424 6.400114,3.648836 6.81e-4,6.9e-5 0.002,-6.8e-5 0.0027,0 1.129172,0.243958 2.276737,0.33978 3.418454,0.31428 0.01868,0.0015 0.05453,0.0053 0.0546,0.0053 l 0.01066,-0.004 c 3.668489,-0.09805 7.26838,-1.542962 9.97038,-4.12292 v -0.0014 c 1.726111,-1.645858 3.048351,-3.680058 3.924498,-5.879421 0.179183,-0.449527 0.650125,-1.643245 0.854946,-2.859144 0.102424,-0.607983 0.166555,-1.22317 -0.03063,-1.879017 -0.09859,-0.32789 -0.286421,-0.682185 -0.608583,-0.948165 -0.322231,-0.266048 -0.751927,-0.402493 -1.155909,-0.411493 -0.150819,-0.0033 -0.301342,-0.0032 -0.452775,0 z m 0.272997,2.066784 c 0.01902,0.154911 0.02619,0.450273 -0.03729,0.826981 -0.152047,0.902737 -0.57456,2.030901 -0.736426,2.436997 -0.773463,1.941565 -1.939427,3.728189 -3.433102,5.152317 l -0.0014,0.0014 c -2.005045,1.914769 -4.619185,3.09787 -7.337624,3.446419 0.359663,-2.033747 0.759656,-4.042656 1.660621,-5.626399 1.061943,-1.865815 2.41242,-3.602545 4.142894,-4.608987 h 0.0014 c 1.674564,-0.969418 3.853979,-1.637592 5.740926,-1.62866 z M 7.1754149,21.074684 c 0.05917,0.0023 0.129897,0.0097 0.214402,0.02663 2.183049,0.434118 4.2688361,1.357769 6.1111361,2.648736 3.007595,2.108613 5.098289,5.469266 5.241541,9.154053 -0.551256,-0.04316 -1.100643,-0.117309 -1.643308,-0.234378 -1.998977,-0.436914 -3.834916,-1.712075 -5.481246,-3.178749 -6.82e-4,-4.78e-4 -7.5e-4,-0.0022 -0.0014,-0.0027 C 9.2353169,27.375878 7.6716589,24.350072 7.0514979,21.177181 l -0.0014,-0.0053 c -0.01343,-0.06861 -0.01568,-0.06222 -0.02264,-0.09455 0.04045,-0.0025 0.08864,-0.005 0.147818,-0.0027 z"
     sodipodi:nodetypes="scscccscscccccccccscsccccccsccccsccccccccccccccccccssccccccccccscscscsccccccccscccccccssccccccccccccccccccccssscccccccccccccccccccccccccc" />
</svg>
