<?xml version="1.0" encoding="UTF-8" standalone="no"?>
<svg
   width="153.65222"
   height="44.000095"
   viewBox="0 0 153.65222 44.000095"
   fill="none"
   version="1.1"
   id="svg13"
   sodipodi:docname="logo.svg"
   inkscape:version="1.2.2 (b0a8486541, 2022-12-01)"
   xmlns:inkscape="http://www.inkscape.org/namespaces/inkscape"
   xmlns:sodipodi="http://sodipodi.sourceforge.net/DTD/sodipodi-0.dtd"
   xmlns="http://www.w3.org/2000/svg"
   xmlns:svg="http://www.w3.org/2000/svg">
  <sodipodi:namedview
     id="namedview15"
     pagecolor="#ffffff"
     bordercolor="#666666"
     borderopacity="1.0"
     inkscape:showpageshadow="2"
     inkscape:pageopacity="0.0"
     inkscape:pagecheckerboard="0"
     inkscape:deskcolor="#d1d1d1"
     showgrid="false"
     inkscape:zoom="5.7179623"
     inkscape:cx="87.268851"
     inkscape:cy="24.746578"
     inkscape:window-width="2560"
     inkscape:window-height="1371"
     inkscape:window-x="0"
     inkscape:window-y="0"
     inkscape:window-maximized="1"
     inkscape:current-layer="svg13" />
  <path
     id="rect345"
     style="fill:#1d293d;fill-opacity:1;stroke-width:14;stroke-linecap:round;stroke-linejoin:round;stroke-dashoffset:13;paint-order:stroke markers fill"
     d="M 22.059871,6.5446716e-6 C 22.256471,1.7254468e-4 22.450641,0.03925654 22.632141,0.11524154 c 0.1816,0.07598 0.34557,0.187898 0.48437,0.328125 0.1389,0.140226 0.24912,0.305155 0.32422,0.488281 0.075,0.18312406 0.11348,0.37998506 0.11328,0.57812506 l -0.004,5.355469 4.03711,-3.94336 c 0.1413,-0.13786 0.30939,-0.245469 0.49218,-0.318359 0.1828,-0.07288 0.37762,-0.108659 0.57422,-0.105469 0.1965,0.0032 0.38992,0.04424 0.57032,0.123047 0.1803,0.07881 0.34377,0.193548 0.48046,0.335938 0.2761,0.287429 0.42828,0.674189 0.42188,1.074218 -0.006,0.40003 -0.17008,0.780194 -0.45508,1.058594 l -6.125,5.9804684 -0.008,7.546875 6.60547,-4.083985 1.88867,-8.4199204 c 0.0433,-0.19329 0.12293,-0.377203 0.23633,-0.539063 0.1134,-0.16185 0.25763,-0.298517 0.42383,-0.404297 0.1663,-0.10579 0.35122,-0.177327 0.54492,-0.210937 0.1937,-0.03361 0.39228,-0.03001 0.58398,0.01367 0.1918,0.04367 0.37261,0.125885 0.53321,0.240235 0.1606,0.11434 0.29734,0.260134 0.40234,0.427734 0.1049,0.1676 0.17568,0.353499 0.20898,0.548828 0.0333,0.19534 0.0297,0.394581 -0.0137,0.587891 l -1.24609,5.5507804 4.53906,-2.8066394 c 0.3384,-0.20932 0.74476,-0.274781 1.13086,-0.181641 0.386,0.0932 0.72013,0.336725 0.92773,0.6777334 0.2075,0.3412 0.27219,0.751426 0.17969,1.140625 -0.0925,0.3891 -0.33357,0.726347 -0.67187,0.935547 l -4.49414,2.777344 5.36914,1.230469 c 0.387,0.0887 0.72209,0.329369 0.93359,0.667969 0.2114,0.338599 0.28136,0.748472 0.19336,1.138671 -0.0436,0.1933 -0.12468,0.37541 -0.23828,0.53711 -0.1136,0.1617 -0.25743,0.298697 -0.42383,0.404297 -0.1664,0.1055 -0.35112,0.177637 -0.54492,0.210937 -0.1938,0.0334 -0.39239,0.02837 -0.58399,-0.01563 l -8.35546,-1.916016 -8.13086,5.03125 -0.006,4.830079 c -10e-5,0.198199 -0.0379,0.395125 -0.11328,0.578125 -0.0754,0.182999 -0.18698,0.348281 -0.32618,0.488281 -0.1391,0.14 -0.30462,0.250572 -0.48632,0.326172 -0.1817,0.0757 -0.37567,0.115434 -0.57227,0.115234 -0.3968,-5e-4 -0.77819,-0.16016 -1.05859,-0.443359 -0.2803,-0.2832 -0.43595,-0.666307 -0.43555,-1.066406 l 0.004,-4.962891 -8.10743,-5.013672 -8.35351,1.916016 c -0.38704,0.0886 -0.79302,0.01789 -1.12891,-0.195313 -0.3359,-0.2131 -0.57408,-0.551307 -0.66211,-0.941406 -0.0436,-0.1932 -0.0487,-0.394444 -0.0156,-0.589844 0.0331,-0.1953 0.10233,-0.381128 0.20703,-0.548828 0.10471,-0.1677 0.24194,-0.313234 0.40234,-0.427734 0.16041,-0.1146 0.34153,-0.196335 0.53321,-0.240235 l 5.36718,-1.230469 -4.49218,-2.777343 c -0.3383,-0.2093 -0.57946,-0.546348 -0.67188,-0.935547 -0.0924,-0.3891 -0.0279,-0.799535 0.17969,-1.1406244 0.10275,-0.16895 0.2374,-0.315201 0.39648,-0.431641 0.15907,-0.11645 0.33813,-0.199904 0.5293,-0.246094 0.38606,-0.09315 0.79449,-0.02768 1.13281,0.181641 l 4.5332,2.8046874 -1.25195,-5.5468744 c -0.088,-0.39018 -0.0181,-0.800053 0.19336,-1.138672 0.21145,-0.33861 0.54849,-0.577266 0.93555,-0.666016 0.387,-0.08867 0.793,-0.01981 1.1289,0.19336 0.3359,0.213159 0.57411,0.553199 0.66211,0.943359 l 1.90039,8.4199214 6.58594,4.074219 0.006,-7.324219 -5.98828,-6.2246094 c -0.1369,-0.142189 -0.24586,-0.30996 -0.31836,-0.49414 -0.0724,-0.18418 -0.10837,-0.381959 -0.10547,-0.580078 0.003,-0.19813 0.0452,-0.392319 0.12305,-0.574219 0.0779,-0.18191 0.19103,-0.346375 0.33203,-0.484375 0.1411,-0.13796 0.30753,-0.247283 0.49023,-0.320313 0.1827,-0.07303 0.37772,-0.108488 0.57422,-0.105468 0.3969,0.0061 0.77438,0.169821 1.05078,0.457031 l 3.84571,3.996094 0.006,-5.326172 c 2e-4,-0.19815 0.0379,-0.395126 0.11328,-0.57812506 0.0753,-0.182999 0.18512,-0.34829 0.32422,-0.488282 0.1391,-0.139992 0.30463,-0.252451 0.48633,-0.328124 0.18159,-0.07567 0.37771,-0.11344799532 0.57421,-0.11328199532835 z M 40.559871,20.378912 c 0.2221,-0.0047 0.44287,-0.0049 0.66407,0 0.5925,0.0132 1.22271,0.213317 1.69531,0.603516 0.4725,0.3901 0.74798,0.909726 0.89258,1.390625 0.2892,0.961899 0.19512,1.86416 0.0449,2.755859 -0.3004,1.783299 -0.99111,3.534061 -1.25391,4.19336 -1.285,3.225697 -3.22426,6.209149 -5.75586,8.623047 v 0.002 c -3.96289,3.783896 -9.24265,5.903075 -14.62304,6.046875 l -0.0156,0.0059 c -10e-5,0 -0.0527,-0.0056 -0.0801,-0.0078 -1.6745,0.0374 -3.35757,-0.103138 -5.01367,-0.460938 -10e-4,-1e-4 -0.003,10e-5 -0.004,0 -3.7215,-0.813399 -6.79971,-3.046865 -9.38672,-5.351562 -4.06478,-3.606997 -6.63022,-8.638159 -7.65235003,-13.876953 -5.7e-4,-0.0024 -0.001,-0.0054 -0.002,-0.0078 -0.22409,-1.177999 0.086,-2.534491 1.04492003,-3.21289 0.95895,-0.6784 2.0021,-0.621935 2.97266,-0.427735 3.63674,0.723599 7.06974,2.252943 10.08984,4.369141 3.6242,2.540997 6.49513,6.194066 7.95703,10.414062 0.4207,-1.497698 0.93637,-2.983207 1.73047,-4.378906 v -0.002 c 1.6989,-2.984997 3.95165,-5.995449 7.18164,-7.873047 h 0.002 c 2.76859,-1.603298 6.17992,-2.734288 9.51171,-2.804688 z m 0.40039,3.03125 c -2.76749,-0.0131 -5.96392,0.966874 -8.41992,2.388672 h -0.002 c -2.538,1.476099 -4.51867,4.023269 -6.07617,6.759766 -1.3214,2.322798 -1.90805,5.269156 -2.43555,8.251953 3.987,-0.511199 7.82102,-2.24639 10.76172,-5.054687 l 0.002,-0.002 c 2.1907,-2.088697 3.90076,-4.709043 5.03516,-7.55664 0.2374,-0.5956 0.85708,-2.25022 1.08008,-3.574219 0.0931,-0.552499 0.0826,-0.985691 0.0547,-1.212891 z m -37.76953,0.166016 c -0.0868,-0.0034 -0.15746,2.06e-4 -0.21679,0.0039 0.0102,0.04742 0.0135,0.03805 0.0332,0.138672 l 0.002,0.0078 c 0.90956,4.653521 3.20289,9.091308 6.69531,12.189453 8.4e-4,7e-4 10e-4,0.0032 0.002,0.0039 2.41459,2.151098 5.10726,4.02131 8.03906,4.66211 0.7959,0.171699 1.60166,0.28045 2.41016,0.34375 -0.2101,-5.404295 -3.27641,-10.333185 -7.6875,-13.425782 -2.70201,-1.893398 -5.76112,-3.248066 -8.96289,-3.884765 -0.12394,-0.0248 -0.22768,-0.03566 -0.31446,-0.03906 z"
     sodipodi:nodetypes="sscccccssscccccccssssscscccccsccccssccccccscccccccccsssccccscscsccscscccccccscssscccsssscssscccccccccccscccccccsccccccccscscccscccccs" />
  <defs
     id="defs11">
    <clipPath
       clipPathUnits="userSpaceOnUse"
       id="clipPath530">
      <g
         id="g534">
        <rect
           width="44"
           height="44"
           fill="#ffffff"
           id="rect532"
           x="0"
           y="0" />
      </g>
    </clipPath>
  </defs>
  <text
     xml:space="preserve"
     style="font-style:normal;font-weight:normal;font-size:24px;line-height:1.25;font-family:sans-serif;letter-spacing:0.5px;word-spacing:0px;fill:#1d293d;fill-opacity:1;stroke:none;stroke-width:0.673362"
     x="50.335808"
     y="30.578173"
     id="text733"><tspan
       sodipodi:role="line"
       id="tspan731"
       x="50.335808"
       y="30.578173"
       style="font-style:normal;font-variant:normal;font-weight:bold;font-stretch:normal;font-size:24px;font-family:Inter;-inkscape-font-specification:'Inter Bold';fill:#1d293d;fill-opacity:1;stroke-width:0.673362">Borda Event</tspan></text>
</svg>
